<?xml version="1.0" standalone="no"?>
<!DOCTYPE svg PUBLIC "-//W3C//DTD SVG 20010904//EN"
 "http://www.w3.org/TR/2001/REC-SVG-20010904/DTD/svg10.dtd">
<svg version="1.0" xmlns="http://www.w3.org/2000/svg"
 width="144.000000pt" height="144.000000pt" viewBox="0 0 144.000000 144.000000"
 preserveAspectRatio="xMidYMid meet">
<metadata>
Created by potrace 1.11, written by Peter Selinger 2001-2013
</metadata>
<g transform="translate(0.000000,144.000000) scale(0.100000,-0.100000)"
fill="#000000" stroke="none">
<path d="M440 1428 c0 -26 12 -58 22 -58 14 0 5 63 -9 68 -7 2 -13 -2 -13 -10z"/>
<path d="M1269 1418 c-7 -13 -17 -26 -23 -30 -6 -4 -7 -11 -2 -15 8 -8 56 41
56 58 0 17 -19 9 -31 -13z"/>
<path d="M981 1391 c-141 -36 -201 -250 -107 -389 45 -67 90 -94 148 -90 25 2
45 1 43 -2 -6 -10 -95 -437 -95 -455 0 -49 20 13 49 150 51 237 49 234 50 92
1 -111 -3 -146 -29 -250 -36 -151 -90 -402 -90 -423 0 -26 18 -5 25 29 20 102
98 444 104 455 4 7 17 -43 29 -111 22 -130 87 -375 103 -392 16 -16 10 15 -26
145 -55 197 -85 387 -89 557 l-3 148 24 -95 c12 -52 33 -144 45 -205 20 -102
31 -135 42 -124 8 7 -82 416 -104 474 -5 14 -6 25 -2 25 21 0 96 78 120 124
23 44 27 63 27 137 0 77 -3 90 -27 125 -15 22 -41 48 -59 58 -35 21 -128 29
-178 17z m159 -33 c146 -74 109 -328 -59 -413 -110 -56 -231 55 -231 213 0
106 47 181 128 206 68 21 112 19 162 -6z"/>
<path d="M445 1314 c-11 -3 -30 -7 -43 -10 -12 -2 -41 -21 -63 -41 -36 -33
-42 -35 -50 -20 -16 28 -73 22 -98 -9 -27 -34 -27 -86 0 -176 17 -56 21 -86
16 -144 -3 -41 -2 -76 3 -79 11 -7 59 51 66 81 10 40 -4 40 -21 1 -8 -21 -17
-37 -19 -37 -1 0 -3 26 -3 58 -1 32 -10 90 -22 128 -12 39 -21 86 -21 105 1
59 37 87 81 62 l25 -15 -19 -57 c-31 -91 -11 -181 54 -242 l28 -26 -19 -64
c-19 -61 -80 -342 -80 -367 0 -7 4 -12 8 -12 5 0 19 51 31 112 12 62 29 138
36 168 l13 55 1 -115 c1 -126 -25 -298 -80 -527 -27 -113 -30 -148 -13 -130 7
7 36 131 75 322 16 82 31 150 32 152 2 1 20 -96 41 -215 47 -267 47 -265 57
-255 8 8 -19 183 -66 415 -19 98 -25 155 -24 245 l2 118 11 -77 c6 -42 14 -79
18 -83 3 -4 42 9 85 28 l79 34 17 -24 c10 -13 22 -23 26 -23 7 0 53 63 94 127
5 7 -1 16 -14 24 -19 10 -26 6 -64 -33 -31 -33 -65 -54 -124 -78 -45 -18 -83
-31 -85 -29 -3 4 -33 219 -30 219 0 0 15 -5 33 -11 76 -27 158 26 206 133 40
88 40 168 2 224 -40 60 -124 100 -182 88z m116 -50 c18 -11 43 -39 56 -63 22
-42 22 -45 6 -64 -23 -26 -74 -47 -114 -47 -17 0 -62 14 -101 31 -60 26 -75
29 -96 20 -23 -11 -24 -10 -18 16 29 118 160 170 267 107z m-159 -164 c79 -37
136 -39 194 -6 l42 23 -13 -53 c-40 -172 -177 -232 -285 -124 -54 54 -65 134
-23 175 18 19 10 20 85 -15z m242 -365 c-20 -30 -41 -52 -47 -48 -6 4 -4 11 6
18 10 7 17 16 17 20 0 12 41 65 51 65 5 0 -7 -25 -27 -55z"/>
</g>
</svg>
