<?xml version="1.0" standalone="no"?>
<!DOCTYPE svg PUBLIC "-//W3C//DTD SVG 20010904//EN"
 "http://www.w3.org/TR/2001/REC-SVG-20010904/DTD/svg10.dtd">
<svg version="1.0" xmlns="http://www.w3.org/2000/svg"
 width="1000.000000pt" height="1000.000000pt" viewBox="0 0 1000.000000 1000.000000"
 preserveAspectRatio="xMidYMid meet">
<metadata>
Created by potrace 1.11, written by Peter Selinger 2001-2013
</metadata>
<g transform="translate(0.000000,1000.000000) scale(0.100000,-0.100000)"
fill="#000000" stroke="none">
<path d="M8240 8089 c-111 -22 -217 -107 -267 -216 -24 -52 -25 -63 -20 -157
11 -193 116 -409 226 -465 49 -25 153 -35 225 -22 33 6 62 8 65 5 18 -18 -148
-253 -259 -365 -47 -47 -139 -124 -206 -172 -184 -131 -232 -196 -166 -227 15
-7 73 -16 130 -19 56 -4 107 -12 113 -18 17 -17 -45 -33 -126 -33 -101 0 -174
16 -205 44 -14 13 -44 27 -68 31 -26 4 -48 15 -55 26 -7 11 -23 19 -39 19 -25
0 -28 -3 -28 -36 0 -83 -64 16 -100 155 -13 47 -35 118 -50 156 -15 39 -31 94
-35 123 -4 30 -13 56 -20 59 -32 11 -25 103 7 103 15 0 78 49 78 61 0 19 -49
8 -79 -17 -35 -29 -61 -26 -61 8 0 67 -66 89 -121 40 l-31 -28 46 -142 c25
-78 51 -171 57 -207 6 -36 15 -65 19 -65 11 0 26 -44 44 -130 9 -41 25 -89 35
-105 10 -17 21 -47 25 -68 4 -23 16 -43 32 -54 58 -40 61 -47 69 -138 6 -75
10 -90 32 -108 42 -37 181 -273 224 -381 25 -62 21 -66 -93 -66 l-88 0 -1 143
c-1 156 -7 190 -31 195 -28 5 -39 -33 -48 -171 -5 -73 -13 -144 -19 -158 -6
-16 -36 -43 -78 -69 -133 -84 -194 -151 -258 -285 -72 -148 -123 -401 -111
-544 9 -115 54 -299 92 -379 41 -84 171 -226 243 -262 95 -48 271 -63 402 -36
107 23 164 58 266 163 l92 94 3 -122 3 -121 112 -2 c130 -1 137 2 161 86 13
45 16 198 23 1068 4 558 11 1031 15 1050 4 19 18 49 32 65 54 65 129 274 158
445 19 110 23 273 10 411 l-9 95 36 80 c53 117 70 199 71 339 0 128 -11 186
-45 229 -61 78 -275 125 -429 95z m321 -105 c24 -17 56 -55 73 -85 28 -49 31
-62 30 -139 -1 -63 -8 -107 -29 -170 -53 -164 -106 -240 -203 -287 -141 -69
-269 -9 -357 167 -113 224 -94 411 50 495 79 47 119 55 262 52 129 -2 132 -2
174 -33z m-461 -2099 c0 -212 -3 -385 -6 -385 -3 0 -29 21 -58 46 -28 26 -79
65 -114 86 -49 31 -73 56 -113 116 -66 101 -233 437 -226 456 4 10 29 16 84
20 43 3 114 15 158 25 48 12 119 20 178 20 l97 1 0 -385z m-281 -440 c74 -19
147 -57 220 -112 l61 -47 0 -356 -1 -355 -76 -60 c-155 -123 -269 -175 -382
-175 -105 0 -206 72 -265 189 -96 188 -94 480 4 712 54 129 110 189 195 210
52 12 188 9 244 -6z"/>
<path d="M4014 7982 c-132 -46 -251 -182 -298 -341 -30 -103 -11 -227 56 -360
l42 -83 -12 -107 c-14 -129 -15 -209 -2 -321 14 -127 30 -190 51 -211 10 -10
19 -29 19 -41 0 -13 25 -57 55 -98 l55 -75 0 -816 c0 -449 3 -945 7 -1103 l6
-287 131 3 131 3 5 350 c3 193 9 356 14 363 11 18 38 -9 335 -327 130 -139
268 -287 306 -327 l70 -74 111 -7 c60 -3 136 -3 167 1 l57 7 -16 29 c-23 38
-110 136 -349 390 -278 295 -335 361 -335 387 0 25 42 80 210 273 241 276 340
403 340 434 0 18 -16 23 -105 32 -56 5 -74 12 -96 33 -28 28 -69 127 -69 166
0 14 -11 57 -25 97 -29 85 -95 377 -86 382 3 1 72 -4 153 -11 123 -12 151 -13
174 -1 37 17 90 88 165 222 34 61 78 138 99 171 71 115 190 342 190 363 0 25
-69 76 -96 70 -11 -2 -54 -74 -121 -202 -105 -203 -188 -338 -250 -407 -36
-39 -91 -65 -123 -56 -24 6 -52 -14 -42 -30 5 -7 33 -21 63 -31 31 -11 54 -25
54 -33 0 -24 -174 -15 -455 22 l-255 34 217 5 c119 3 220 9 224 13 5 4 4 16
-2 25 -18 28 -172 118 -279 162 -55 23 -119 50 -141 60 -54 24 -201 147 -287
240 -66 71 -124 156 -115 166 3 2 20 -2 37 -9 27 -12 39 -12 69 -1 21 7 73 13
117 14 120 0 150 12 221 84 75 76 97 125 124 269 31 175 39 254 29 292 -11 39
-88 113 -164 156 -99 57 -279 76 -381 41z m428 -256 c44 -21 51 -45 43 -145
-21 -242 -105 -373 -254 -397 -74 -12 -128 3 -176 49 -52 50 -63 92 -48 186
20 124 75 233 145 284 61 46 216 58 290 23z m-560 -658 c9 -7 43 -58 74 -113
71 -124 117 -187 181 -246 61 -57 79 -67 145 -79 28 -6 63 -18 77 -27 14 -10
32 -16 38 -15 15 3 69 -24 79 -40 5 -8 -19 -9 -98 -4 -119 7 -123 6 -134 -62
-9 -57 -34 -77 -98 -77 -83 1 -121 13 -161 52 -67 65 -110 184 -139 384 -19
124 -20 193 -6 220 12 22 20 24 42 7z m573 -773 c141 -7 254 -25 271 -42 19
-20 18 -43 -11 -172 -14 -61 -37 -191 -51 -288 -16 -113 -32 -189 -45 -212
-42 -79 -2 -176 45 -109 9 12 16 36 16 53 0 55 78 507 90 519 16 16 25 -4 49
-99 12 -44 30 -111 42 -150 35 -117 35 -134 -3 -186 -41 -58 -446 -514 -522
-588 -31 -30 -59 -51 -63 -47 -11 10 -21 432 -22 929 l-1 407 53 -5 c28 -2 97
-7 152 -10z"/>
<path d="M2113 7458 c-6 -7 -23 -41 -38 -76 -30 -66 -41 -74 -105 -69 -31 2
-35 -1 -38 -26 -3 -23 1 -28 27 -33 17 -4 31 -11 31 -16 0 -5 -23 -35 -51 -66
-73 -82 -82 -103 -87 -212 -7 -169 41 -322 131 -412 59 -58 163 -97 285 -105
45 -3 82 -9 82 -13 0 -28 -290 -334 -358 -378 -30 -19 -103 -69 -163 -112 -60
-43 -124 -83 -143 -90 -19 -6 -49 -27 -66 -46 -24 -28 -30 -44 -30 -79 0 -38
-25 -95 -169 -379 -158 -309 -194 -396 -176 -414 12 -12 47 41 128 195 43 81
96 175 116 208 21 33 55 98 75 145 21 47 53 113 72 148 l35 62 137 0 c75 0
169 3 207 6 39 4 67 4 63 0 -3 -4 -68 -21 -143 -37 -75 -16 -156 -37 -181 -48
-38 -17 -44 -24 -44 -51 0 -65 43 -113 198 -219 54 -37 149 -119 232 -201 129
-128 172 -161 187 -146 25 24 -267 325 -397 409 -111 71 -136 98 -131 144 3
28 129 63 227 63 56 0 117 -42 185 -126 82 -101 439 -575 439 -583 0 -13 -41
-71 -145 -206 -265 -342 -405 -534 -405 -555 0 -24 149 -32 214 -10 43 14 150
125 247 255 39 53 81 106 95 120 13 13 24 31 24 39 0 18 107 136 124 136 12
-1 108 -122 242 -305 115 -158 168 -220 203 -235 31 -13 284 -11 297 2 9 10 5
16 -278 390 -138 183 -262 347 -274 363 l-23 31 190 249 c104 138 217 281 250
319 58 67 60 70 57 120 l-3 51 -92 0 -92 0 -56 -55 c-31 -30 -129 -149 -217
-265 -89 -115 -163 -212 -165 -214 -6 -8 -55 43 -134 141 -94 117 -115 173
-105 277 8 92 30 168 83 294 l45 108 -37 87 c-59 136 -109 231 -170 323 -89
132 -91 137 -66 168 98 122 128 194 142 339 6 59 14 114 19 122 4 9 21 15 41
15 24 0 35 5 37 18 3 16 -19 41 -110 121 l-27 23 20 64 c23 73 21 84 -17 93
-16 4 -34 16 -41 26 -7 10 -32 21 -55 25 -24 4 -107 27 -185 51 -159 49 -157
49 -170 32z m98 -286 c57 -22 155 -56 217 -76 l112 -38 0 -112 c0 -87 -5 -126
-21 -174 -50 -149 -174 -272 -272 -272 -54 0 -167 62 -226 125 -121 127 -150
298 -75 436 29 53 124 149 147 149 8 0 61 -17 118 -38z m199 -869 c6 -21 16
-99 22 -173 9 -108 8 -160 -3 -260 l-14 -125 -190 2 c-194 3 -418 17 -468 31
-26 7 -24 9 70 83 54 41 138 104 187 139 110 78 197 159 282 262 75 89 98 97
114 41z"/>
<path d="M6093 5669 c-134 -22 -255 -90 -357 -200 -105 -113 -171 -266 -196
-455 -23 -166 14 -363 102 -544 44 -91 61 -115 130 -181 79 -76 98 -89 233
-150 67 -30 78 -31 225 -36 85 -3 187 0 225 5 70 11 199 52 216 69 15 15 32
140 25 178 -10 50 -32 51 -146 11 -167 -59 -280 -58 -409 5 -203 100 -326 378
-280 635 38 219 145 378 289 430 69 25 246 30 360 9 52 -9 109 -19 125 -22 26
-4 33 -1 43 22 35 76 22 183 -24 204 -61 27 -435 41 -561 20z"/>
</g>
</svg>
