<?xml version="1.0" standalone="no"?>
<!DOCTYPE svg PUBLIC "-//W3C//DTD SVG 20010904//EN"
 "http://www.w3.org/TR/2001/REC-SVG-20010904/DTD/svg10.dtd">
<svg version="1.0" xmlns="http://www.w3.org/2000/svg"
 width="400.000000pt" height="300.000000pt" viewBox="0 0 400.000000 300.000000"
 preserveAspectRatio="xMidYMid meet">
<metadata>
Created by potrace 1.13, written by Peter Selinger 2001-2015
</metadata>
<g transform="translate(0.000000,300.000000) scale(0.100000,-0.100000)"
fill="#000000" stroke="none">
<path d="M3265 2726 c-38 -17 -70 -52 -82 -91 -21 -67 30 -205 89 -236 23 -12
75 -14 108 -4 18 6 13 -6 -30 -68 -47 -69 -85 -106 -150 -149 -98 -65 -103
-98 -13 -98 33 0 52 -4 48 -10 -10 -17 -125 -12 -131 5 -4 8 -17 15 -30 15
-13 0 -24 5 -24 10 0 6 -7 10 -16 10 -10 0 -14 -6 -10 -15 3 -8 2 -15 -2 -15
-12 0 -30 36 -38 75 -4 21 -13 50 -20 64 -8 14 -14 36 -14 49 0 12 -4 22 -8
22 -4 0 -8 9 -9 20 -1 11 3 20 8 20 6 0 17 7 25 15 14 13 14 15 0 15 -8 0 -18
-4 -21 -10 -9 -15 -25 -12 -25 4 0 25 -23 36 -45 20 -17 -13 -18 -18 -6 -47
14 -35 33 -105 34 -124 0 -7 4 -13 8 -13 3 0 10 -20 13 -45 4 -24 11 -47 17
-50 5 -4 9 -15 9 -27 0 -11 8 -22 20 -25 16 -4 20 -14 20 -49 0 -30 4 -44 14
-44 11 0 96 -152 96 -172 0 -5 -18 -7 -40 -6 l-40 1 0 69 c0 53 -3 68 -15 68
-11 0 -15 -17 -17 -71 -3 -70 -4 -72 -37 -90 -74 -39 -120 -112 -140 -223 -15
-80 -14 -114 5 -196 12 -53 24 -79 55 -114 54 -61 88 -76 171 -76 76 0 122 21
171 80 l27 32 0 -51 0 -51 44 0 c83 0 76 -41 76 454 -1 300 3 442 10 444 19 7
59 107 71 177 13 81 14 114 4 171 -5 30 -3 48 8 65 38 63 47 198 15 237 -33
40 -142 55 -203 28z m170 -40 c37 -35 42 -86 16 -161 -24 -67 -47 -95 -94
-111 -51 -18 -99 12 -131 80 -61 129 -12 216 121 216 52 0 66 -4 88 -24z
m-195 -833 l0 -157 -27 25 c-16 14 -40 31 -54 38 -18 9 -42 44 -78 115 -28 56
-51 105 -51 109 0 4 19 7 43 8 23 0 51 4 62 9 11 5 39 9 63 9 l42 1 0 -157z
m-43 -206 l42 -32 1 -142 0 -142 -42 -34 c-122 -98 -221 -79 -263 51 -31 93
-8 234 49 306 36 45 148 42 213 -7z"/>
<path d="M1563 2670 c-47 -35 -83 -100 -83 -152 0 -41 17 -96 36 -119 11 -12
12 -27 4 -70 -12 -61 5 -209 23 -209 6 0 7 -3 4 -7 -4 -3 4 -21 18 -39 l25
-32 2 -444 3 -443 53 0 54 0 1 148 c0 81 4 147 8 147 4 0 42 -39 86 -87 43
-48 105 -115 138 -149 l60 -63 62 -2 c35 -1 66 1 70 4 3 4 -27 42 -68 85 -106
111 -192 204 -207 224 -12 15 -3 28 65 105 103 116 153 179 153 192 0 6 -18
11 -40 11 -34 0 -42 4 -55 30 -8 16 -15 39 -15 50 0 12 -4 29 -10 39 -5 10
-16 49 -23 86 l-14 68 68 -7 c68 -6 68 -6 93 26 13 18 34 53 47 78 13 25 25
47 28 50 4 3 16 25 29 49 12 24 30 56 40 73 16 28 16 30 -2 44 -27 19 -30 18
-47 -16 -26 -55 -74 -145 -79 -150 -4 -3 -16 -22 -29 -42 -21 -36 -46 -52 -71
-46 -7 2 -14 -2 -17 -8 -2 -6 11 -14 28 -18 23 -4 30 -9 22 -17 -7 -7 -55 -4
-159 10 l-149 20 103 -2 c83 -2 102 1 100 12 -3 16 -116 77 -161 87 -32 7
-143 108 -166 152 -12 22 -11 23 8 12 12 -6 21 -7 21 -2 0 4 24 8 54 8 45 -1
59 4 81 24 30 28 45 53 51 84 28 159 28 146 -2 177 -39 41 -84 59 -146 59 -44
0 -61 -5 -95 -30z m217 -80 c16 -8 18 -18 13 -67 -6 -70 -27 -115 -64 -137
-60 -35 -129 -6 -129 56 0 56 32 126 65 143 35 17 88 19 115 5z m-209 -287
c52 -102 102 -153 151 -153 9 0 20 -5 23 -10 4 -6 10 -8 14 -5 5 2 16 -2 26
-9 16 -12 12 -13 -32 -9 -50 5 -52 5 -55 -23 -3 -32 -21 -39 -72 -30 -49 9
-81 82 -93 214 -6 60 13 72 38 25z m321 -301 c7 -7 5 -27 -5 -64 -8 -29 -18
-86 -22 -126 -4 -39 -11 -75 -16 -78 -5 -3 -9 -16 -9 -30 0 -31 30 -33 31 -1
0 12 2 31 5 42 2 11 9 58 17 105 10 71 14 82 24 65 6 -11 14 -40 18 -65 4 -25
12 -50 17 -57 14 -18 3 -43 -45 -94 -23 -26 -76 -85 -117 -132 -41 -47 -78
-83 -82 -81 -4 3 -7 124 -7 271 l-1 266 91 -5 c50 -3 95 -10 101 -16z"/>
<path d="M831 2455 c-11 -30 -16 -34 -37 -29 -18 5 -24 2 -24 -10 0 -9 7 -16
15 -16 21 0 19 -4 -15 -38 -27 -27 -30 -37 -30 -94 0 -68 23 -126 63 -159 24
-20 102 -40 124 -32 7 3 13 1 13 -5 0 -12 -132 -152 -144 -152 -4 0 -31 -18
-58 -40 -28 -22 -56 -40 -63 -40 -18 0 -48 -37 -40 -49 3 -6 0 -23 -9 -38 -8
-16 -23 -46 -34 -68 -11 -22 -35 -69 -54 -105 -38 -71 -51 -110 -37 -110 4 0
23 30 41 68 18 37 35 69 38 72 10 10 31 46 41 71 5 14 18 41 28 60 l18 34 89
2 89 2 -80 -17 c-62 -13 -81 -21 -83 -35 -5 -23 29 -60 84 -92 23 -14 67 -53
98 -87 38 -41 60 -58 66 -52 13 13 -114 144 -161 167 -19 9 -40 25 -46 36 -16
25 0 35 65 44 53 7 65 -3 161 -133 39 -52 80 -106 91 -120 11 -14 20 -28 20
-31 0 -5 -30 -47 -68 -94 -74 -92 -152 -200 -152 -208 0 -8 17 -12 47 -11 43
1 51 6 91 50 24 27 51 61 60 77 9 15 20 27 24 27 4 0 8 6 8 13 0 8 12 24 26
38 l26 24 29 -35 c16 -19 41 -53 56 -75 15 -22 41 -57 58 -77 29 -36 32 -38
93 -38 34 0 62 4 62 8 0 5 -9 20 -20 33 -11 13 -23 29 -27 34 -5 6 -48 63 -96
128 l-89 117 89 117 c48 65 94 122 101 126 6 4 12 19 12 32 0 22 -4 25 -40 25
-45 0 -51 -5 -148 -133 l-67 -88 -30 34 c-16 19 -38 45 -47 58 -26 34 -23 103
8 177 l27 62 -28 65 c-15 36 -43 85 -61 109 -28 37 -32 47 -21 58 36 37 58 89
59 141 1 47 4 54 20 49 30 -8 21 26 -12 43 -26 13 -28 18 -20 41 14 35 13 44
-5 44 -8 0 -15 5 -15 10 0 6 -9 10 -20 10 -11 0 -46 9 -77 20 -32 11 -60 20
-63 20 -3 0 -12 -16 -19 -35z m124 -112 l60 -19 3 -47 c4 -61 -30 -132 -78
-162 -32 -20 -37 -21 -70 -8 -108 45 -144 172 -69 249 30 31 33 32 63 20 17
-7 58 -22 91 -33z m9 -320 c11 -42 15 -132 8 -178 l-7 -50 -90 3 c-50 1 -111
5 -138 8 l-47 6 37 30 c21 17 63 47 93 68 30 21 71 59 90 84 39 50 46 54 54
29z"/>
<path d="M2455 1770 c-135 -15 -225 -119 -241 -278 -10 -97 39 -238 97 -280
10 -7 24 -19 32 -27 8 -8 26 -17 41 -21 14 -3 29 -10 32 -15 7 -12 187 -12
199 0 6 5 21 11 35 13 22 3 25 8 28 51 3 53 -3 57 -61 32 -180 -75 -333 115
-257 319 44 116 124 144 300 104 20 -4 27 74 8 89 -16 13 -146 21 -213 13z"/>
</g>
</svg>
